<svg width="712" height="740" xmlns="http://www.w3.org/2000/svg" xmlns:xlink="http://www.w3.org/1999/xlink" viewBox="0.00 0.00 679.68 1016">
<g id="graph0" class="graph" transform="translate(4.000000044818375,1012.000018035661) scale(1.0000000112045937)">
<title>BitSnark</title>
<polygon fill="white" stroke="none" points="-4,4 -4,-1012 675.68,-1012 675.68,4 -4,4"/>
<!-- o0 -->
<g id="node1" class="node">
<title>prover_stake</title>
<ellipse fill="none" stroke="black" cx="358.87" cy="-990" rx="60.65" ry="18"/>
<text text-anchor="middle" x="358.87" y="-985.8" font-family="Times,serif" font-size="14.00">Prover Stake</text>
</g>
<!-- No Challenge -->
<g id="node6" class="node">
<title>proof</title>
<polygon fill="none" stroke="green" points="379.87,-936 331.87,-936 331.87,-900 385.87,-900 385.87,-930 379.87,-936"/>
<polyline fill="none" stroke="green" points="379.87,-936 379.87,-930"/>
<polyline fill="none" stroke="green" points="385.87,-930 379.87,-930"/>
<text text-anchor="middle" x="358.87" y="-913.8" font-family="Times,serif" font-size="14.00">Proof</text>
</g>
<!-- o0&#45;&gt;No Challenge -->
<g id="edge5" class="edge">
<title>prover_stake-&gt;proof</title>
<path fill="none" stroke="black" d="M358.87,-971.7C358.87,-964.41 358.87,-955.73 358.87,-947.54"/>
<polygon fill="black" stroke="black" points="362.37,-947.62 358.87,-937.62 355.37,-947.62 362.37,-947.62"/>
</g>
<!-- Proof Accepted -->
<g id="node2" class="node">
<title>verifier_payment</title>
<ellipse fill="none" stroke="black" cx="593.87" cy="-162" rx="77.81" ry="18"/>
<text text-anchor="middle" x="593.87" y="-157.8" font-family="Times,serif" font-size="14.00">Verifier Payment</text>
</g>
<!-- o0&#45;&gt;Proof Accepted -->
<g id="node14" class="node">
<title>challenge</title>
<polygon fill="none" stroke="blue" points="593.25,-108 526.49,-108 526.49,-72 599.25,-72 599.25,-102 593.25,-108"/>
<polyline fill="none" stroke="blue" points="593.25,-108 593.25,-102"/>
<polyline fill="none" stroke="blue" points="599.25,-102 593.25,-102"/>
<text text-anchor="middle" x="562.87" y="-85.8" font-family="Times,serif" font-size="14.00">Challenge</text>
</g>
<!-- o1 -->
<g id="edge11" class="edge">
<title>verifier_payment-&gt;challenge</title>
<path fill="none" stroke="black" d="M586.21,-143.7C582.83,-136.07 578.78,-126.92 575.01,-118.4"/>
<polygon fill="black" stroke="black" points="578.31,-117.21 571.06,-109.49 571.91,-120.05 578.31,-117.21"/>
</g>
<!-- o1&#45;&gt;No Challenge -->
<g id="node3" class="node">
<title>prover_wallet</title>
<ellipse fill="none" stroke="black" cx="461.87" cy="-18" rx="64.93" ry="18"/>
<text text-anchor="middle" x="461.87" y="-13.8" font-family="Times,serif" font-size="14.00">Prover Wallet</text>
</g>
<!-- State 0 -->
<g id="node4" class="node">
<title>verifier_wallet</title>
<ellipse fill="none" stroke="black" cx="86.87" cy="-18" rx="69.75" ry="18"/>
<text text-anchor="middle" x="86.87" y="-13.8" font-family="Times,serif" font-size="14.00">Verifier Wallet</text>
</g>
<!-- o1&#45;&gt;State 0 -->
<g id="node5" class="node">
<title>hinged_funds</title>
<ellipse fill="none" stroke="black" stroke-dasharray="5,2" cx="368.87" cy="-728.8" rx="65.49" ry="18"/>
<text text-anchor="middle" x="368.87" y="-724.6" font-family="Times,serif" font-size="14.00">Hinged Funds</text>
</g>
<!-- Verifier Unchallenged -->
<g id="node11" class="node">
<title>prover_unchallenged_0</title>
<polygon fill="none" stroke="green" points="351.75,-674.8 264,-674.8 264,-616.4 357.75,-616.4 357.75,-668.8 351.75,-674.8"/>
<polyline fill="none" stroke="green" points="351.75,-674.8 351.75,-668.8"/>
<polyline fill="none" stroke="green" points="357.75,-668.8 351.75,-668.8"/>
<text text-anchor="middle" x="310.87" y="-658.2" font-family="Times,serif" font-size="14.00">Prover</text>
<text text-anchor="middle" x="310.87" y="-641.4" font-family="Times,serif" font-size="14.00">Unchallenged</text>
<text text-anchor="middle" x="310.87" y="-624.6" font-family="Times,serif" font-size="14.00">0</text>
</g>
<!-- o1&#45;&gt;Verifier Unchallenged -->
<g id="edge28" class="edge">
<title>hinged_funds-&gt;prover_unchallenged_0</title>
<path fill="none" stroke="black" d="M356.85,-710.98C351.33,-703.24 344.54,-693.73 337.88,-684.41"/>
<polygon fill="black" stroke="black" points="340.87,-682.57 332.21,-676.47 335.17,-686.64 340.87,-682.57"/>
</g>
<!-- o2 -->
<g id="node12" class="node">
<title>prover_unchallenged_n</title>
<polygon fill="none" stroke="green" points="351.75,-408.4 264,-408.4 264,-350 357.75,-350 357.75,-402.4 351.75,-408.4"/>
<polyline fill="none" stroke="green" points="351.75,-408.4 351.75,-402.4"/>
<polyline fill="none" stroke="green" points="357.75,-402.4 351.75,-402.4"/>
<text text-anchor="middle" x="310.87" y="-391.8" font-family="Times,serif" font-size="14.00">Prover</text>
<text text-anchor="middle" x="310.87" y="-375" font-family="Times,serif" font-size="14.00">Unchallenged</text>
<text text-anchor="middle" x="310.87" y="-358.2" font-family="Times,serif" font-size="14.00">n</text>
</g>
<!-- o2&#45;&gt;No Challenge -->
<g id="edge29" class="edge">
<title>hinged_funds-&gt;prover_unchallenged_n</title>
<path fill="none" stroke="black" d="M369.71,-710.35C370.51,-688.35 371.03,-649.41 366.87,-616.4 357.99,-545.9 336.52,-465.81 322.89,-419.34"/>
<polygon fill="black" stroke="black" points="326.32,-418.6 320.12,-410.01 319.61,-420.59 326.32,-418.6"/>
</g>
<!-- Challenge -->
<g id="node21" class="node">
<title>o0</title>
<ellipse fill="black" stroke="black" cx="423.87" cy="-162" rx="1.8" ry="1.8"/>
</g>
<!-- o2&#45;&gt;Challenge -->
<g id="edge27" class="edge">
<title>hinged_funds-&gt;o0</title>
<path fill="none" stroke="black" d="M377.95,-710.91C393.58,-680.23 423.87,-612.9 423.87,-552.2 423.87,-552.2 423.87,-552.2 423.87,-311.2 423.87,-249.96 423.87,-174.5 423.87,-164.19"/>
</g>
<!-- o3 -->
<g id="node22" class="node">
<title>o1</title>
<ellipse fill="black" stroke="black" cx="218.87" cy="-862.2" rx="1.8" ry="1.8"/>
</g>
<!-- Prover Unchallenged 1 -->
<g id="edge6" class="edge">
<title>proof-&gt;o1</title>
<path fill="none" stroke="black" d="M331.55,-906.5C294.31,-892.19 231.01,-867.86 220.4,-863.79"/>
</g>
<!-- o3&#45;&gt;Prover Unchallenged 1 -->
<g id="node23" class="node">
<title>o2</title>
<ellipse fill="black" stroke="black" cx="495.87" cy="-162" rx="1.8" ry="1.8"/>
</g>
<!-- Select 0 -->
<g id="edge7" class="edge">
<title>proof-&gt;o2</title>
<path fill="none" stroke="cyan" d="M386.06,-909C427.03,-895.07 499.87,-862.2 499.87,-804.6 499.87,-804.6 499.87,-804.6 499.87,-311.2 499.87,-249.94 496.42,-174.49 495.93,-164.19"/>
</g>
<!-- o3&#45;&gt;Select 0 -->
<g id="node7" class="node">
<title>no_challenge</title>
<polygon fill="none" stroke="green" points="502.56,-108 415.19,-108 415.19,-72 508.56,-72 508.56,-102 502.56,-108"/>
<polyline fill="none" stroke="green" points="502.56,-108 502.56,-102"/>
<polyline fill="none" stroke="green" points="508.56,-102 502.56,-102"/>
<text text-anchor="middle" x="461.87" y="-85.8" font-family="Times,serif" font-size="14.00">No Challenge</text>
</g>
<!-- o4 -->
<g id="edge3" class="edge">
<title>no_challenge-&gt;prover_wallet</title>
<path fill="none" stroke="black" d="M461.87,-71.7C461.87,-64.41 461.87,-55.73 461.87,-47.54"/>
<polygon fill="black" stroke="black" points="465.37,-47.62 461.87,-37.62 458.37,-47.62 465.37,-47.62"/>
</g>
<!-- State 1 -->
<g id="node8" class="node">
<title>proof_accepted</title>
<polygon fill="none" stroke="green" points="391.61,-108 294.14,-108 294.14,-72 397.61,-72 397.61,-102 391.61,-108"/>
<polyline fill="none" stroke="green" points="391.61,-108 391.61,-102"/>
<polyline fill="none" stroke="green" points="397.61,-102 391.61,-102"/>
<text text-anchor="middle" x="345.87" y="-85.8" font-family="Times,serif" font-size="14.00">Proof Accepted</text>
</g>
<!-- o4&#45;&gt;State 1 -->
<g id="edge4" class="edge">
<title>proof_accepted-&gt;prover_wallet</title>
<path fill="none" stroke="black" d="M374.85,-71.52C390.29,-62.19 409.45,-50.64 425.85,-40.74"/>
<polygon fill="black" stroke="black" points="427.59,-43.77 434.35,-35.61 423.98,-37.78 427.59,-43.77"/>
</g>
<!-- Verifier Unchallenged 1 -->
<g id="node9" class="node">
<title>state_0</title>
<polygon fill="none" stroke="green" points="239.87,-824.4 191.87,-824.4 191.87,-782.8 245.87,-782.8 245.87,-818.4 239.87,-824.4"/>
<polyline fill="none" stroke="green" points="239.87,-824.4 239.87,-818.4"/>
<polyline fill="none" stroke="green" points="245.87,-818.4 239.87,-818.4"/>
<text text-anchor="middle" x="218.87" y="-807.8" font-family="Times,serif" font-size="14.00">State</text>
<text text-anchor="middle" x="218.87" y="-791" font-family="Times,serif" font-size="14.00">0</text>
</g>
<!-- o4&#45;&gt;Verifier Unchallenged 1 -->
<g id="node24" class="node">
<title>o3</title>
<ellipse fill="black" stroke="black" cx="218.87" cy="-728.8" rx="1.8" ry="1.8"/>
</g>
<!-- o5 -->
<g id="edge16" class="edge">
<title>state_0-&gt;o3</title>
<path fill="none" stroke="black" d="M218.87,-782.32C218.87,-762.8 218.87,-735.53 218.87,-730.58"/>
</g>
<!-- State n -->
<g id="node10" class="node">
<title>state_n</title>
<polygon fill="none" stroke="green" points="239.87,-572 191.87,-572 191.87,-530.4 245.87,-530.4 245.87,-566 239.87,-572"/>
<polyline fill="none" stroke="green" points="239.87,-572 239.87,-566"/>
<polyline fill="none" stroke="green" points="245.87,-566 239.87,-566"/>
<text text-anchor="middle" x="218.87" y="-555.4" font-family="Times,serif" font-size="14.00">State</text>
<text text-anchor="middle" x="218.87" y="-538.6" font-family="Times,serif" font-size="14.00">n</text>
</g>
<!-- o5&#45;&gt;State n -->
<g id="node25" class="node">
<title>o4</title>
<ellipse fill="black" stroke="black" cx="218.87" cy="-465.2" rx="1.8" ry="1.8"/>
</g>
<!-- Prover Unchallenged 2 -->
<g id="edge21" class="edge">
<title>state_n-&gt;o4</title>
<path fill="none" stroke="black" d="M218.87,-530.29C218.87,-507.78 218.87,-473.43 218.87,-467.19"/>
</g>
<!-- o5&#45;&gt;Prover Unchallenged 2 -->
<g id="node13" class="node">
<title>argument</title>
<polygon fill="none" stroke="green" points="249.26,-263.2 182.49,-263.2 182.49,-227.2 255.26,-227.2 255.26,-257.2 249.26,-263.2"/>
<polyline fill="none" stroke="green" points="249.26,-263.2 249.26,-257.2"/>
<polyline fill="none" stroke="green" points="255.26,-257.2 249.26,-257.2"/>
<text text-anchor="middle" x="218.87" y="-241" font-family="Times,serif" font-size="14.00">Argument</text>
</g>
<!-- o6 -->
<g id="node27" class="node">
<title>o6</title>
<ellipse fill="black" stroke="black" cx="218.87" cy="-162" rx="1.8" ry="1.8"/>
</g>
<!-- Prover Unchallenged n -->
<g id="edge30" class="edge">
<title>argument-&gt;o6</title>
<path fill="none" stroke="black" d="M218.87,-226.98C218.87,-205.38 218.87,-170.38 218.87,-164.01"/>
</g>
<!-- o6&#45;&gt;Prover Unchallenged n -->
<g id="edge12" class="edge">
<title>challenge-&gt;prover_wallet</title>
<path fill="none" stroke="black" d="M537.65,-71.52C524.54,-62.44 508.38,-51.23 494.36,-41.51"/>
<polygon fill="black" stroke="black" points="496.51,-38.75 486.29,-35.93 492.52,-44.5 496.51,-38.75"/>
</g>
<!-- Select n -->
<g id="node15" class="node">
<title>verifier_unchallenged</title>
<polygon fill="none" stroke="blue" points="87.75,-486 0,-486 0,-444.4 93.75,-444.4 93.75,-480 87.75,-486"/>
<polyline fill="none" stroke="blue" points="87.75,-486 87.75,-480"/>
<polyline fill="none" stroke="blue" points="93.75,-480 87.75,-480"/>
<text text-anchor="middle" x="46.87" y="-469.4" font-family="Times,serif" font-size="14.00">Verifier</text>
<text text-anchor="middle" x="46.87" y="-452.6" font-family="Times,serif" font-size="14.00">Unchallenged</text>
</g>
<!-- o6&#45;&gt;Select n -->
<g id="edge14" class="edge">
<title>verifier_unchallenged-&gt;verifier_wallet</title>
<path fill="none" stroke="black" d="M46,-444.18C44.83,-415.26 42.87,-360.14 42.87,-313.2 42.87,-313.2 42.87,-313.2 42.87,-161 42.87,-119.53 60.2,-74.18 73.11,-46.16"/>
<polygon fill="black" stroke="black" points="76.18,-47.86 77.32,-37.33 69.86,-44.85 76.18,-47.86"/>
</g>
<!-- o7 -->
<g id="node16" class="node">
<title>select_0</title>
<polygon fill="none" stroke="blue" points="239.87,-666.4 191.87,-666.4 191.87,-624.8 245.87,-624.8 245.87,-660.4 239.87,-666.4"/>
<polyline fill="none" stroke="blue" points="239.87,-666.4 239.87,-660.4"/>
<polyline fill="none" stroke="blue" points="245.87,-660.4 239.87,-660.4"/>
<text text-anchor="middle" x="218.87" y="-649.8" font-family="Times,serif" font-size="14.00">Select</text>
<text text-anchor="middle" x="218.87" y="-633" font-family="Times,serif" font-size="14.00">0</text>
</g>
<!-- Argument -->
<g id="edge20" class="edge">
<title>select_0-&gt;state_n</title>
<path fill="none" stroke="black" d="M218.87,-624.55C218.87,-612.56 218.87,-597.07 218.87,-583.5" stroke-dasharray="1,5"/>
<polygon fill="black" stroke="black" points="222.37,-583.72 218.87,-573.72 215.37,-583.72 222.37,-583.72"/>
</g>
<!-- o7&#45;&gt;Argument -->
<g id="node18" class="node">
<title>verifier_unchallenged_0</title>
<polygon fill="none" stroke="blue" points="167.75,-580.4 80,-580.4 80,-522 173.75,-522 173.75,-574.4 167.75,-580.4"/>
<polyline fill="none" stroke="blue" points="167.75,-580.4 167.75,-574.4"/>
<polyline fill="none" stroke="blue" points="173.75,-574.4 167.75,-574.4"/>
<text text-anchor="middle" x="126.87" y="-563.8" font-family="Times,serif" font-size="14.00">Verifier</text>
<text text-anchor="middle" x="126.87" y="-547" font-family="Times,serif" font-size="14.00">Unchallenged</text>
<text text-anchor="middle" x="126.87" y="-530.2" font-family="Times,serif" font-size="14.00">0</text>
</g>
<!-- Verifier Unchallenged n -->
<g id="edge19" class="edge">
<title>select_0-&gt;verifier_unchallenged_0</title>
<path fill="none" stroke="black" d="M198.91,-624.55C188.42,-614.01 175.23,-600.77 163.02,-588.51" stroke-dasharray="5,2"/>
<polygon fill="black" stroke="black" points="165.78,-586.31 156.24,-581.7 160.82,-591.25 165.78,-586.31"/>
</g>
<!-- o7&#45;&gt;Verifier Unchallenged n -->
<g id="node17" class="node">
<title>select_n</title>
<polygon fill="none" stroke="blue" points="239.87,-400 191.87,-400 191.87,-358.4 245.87,-358.4 245.87,-394 239.87,-400"/>
<polyline fill="none" stroke="blue" points="239.87,-400 239.87,-394"/>
<polyline fill="none" stroke="blue" points="245.87,-394 239.87,-394"/>
<text text-anchor="middle" x="218.87" y="-383.4" font-family="Times,serif" font-size="14.00">Select</text>
<text text-anchor="middle" x="218.87" y="-366.6" font-family="Times,serif" font-size="14.00">n</text>
</g>
<!-- o8 -->
<g id="node26" class="node">
<title>o5</title>
<ellipse fill="black" stroke="black" cx="218.87" cy="-312.2" rx="1.8" ry="1.8"/>
</g>
<!-- o8&#45;&gt;Proof Accepted -->
<g id="edge24" class="edge">
<title>select_n-&gt;o5</title>
<path fill="none" stroke="black" d="M218.87,-357.99C218.87,-341.29 218.87,-319.52 218.87,-314.34"/>
</g>
<!-- Proof Refuted -->
<g id="node19" class="node">
<title>verifier_unchallenged_n</title>
<polygon fill="none" stroke="blue" points="158.75,-274.4 71,-274.4 71,-216 164.75,-216 164.75,-268.4 158.75,-274.4"/>
<polyline fill="none" stroke="blue" points="158.75,-274.4 158.75,-268.4"/>
<polyline fill="none" stroke="blue" points="164.75,-268.4 158.75,-268.4"/>
<text text-anchor="middle" x="117.87" y="-257.8" font-family="Times,serif" font-size="14.00">Verifier</text>
<text text-anchor="middle" x="117.87" y="-241" font-family="Times,serif" font-size="14.00">Unchallenged</text>
<text text-anchor="middle" x="117.87" y="-224.2" font-family="Times,serif" font-size="14.00">n</text>
</g>
<!-- o8&#45;&gt;Proof Refuted -->
<g id="node20" class="node">
<title>proof_refuted</title>
<polygon fill="none" stroke="blue" points="216.34,-108 127.41,-108 127.41,-72 222.34,-72 222.34,-102 216.34,-108"/>
<polyline fill="none" stroke="blue" points="216.34,-108 216.34,-102"/>
<polyline fill="none" stroke="blue" points="222.34,-102 216.34,-102"/>
<text text-anchor="middle" x="174.87" y="-85.8" font-family="Times,serif" font-size="14.00">Proof Refuted</text>
</g>
<!-- Prover Stake -->
<g id="edge33" class="edge">
<title>proof_refuted-&gt;verifier_wallet</title>
<path fill="none" stroke="black" d="M153.12,-71.7C142.09,-62.92 128.52,-52.13 116.55,-42.61"/>
<polygon fill="black" stroke="black" points="118.96,-40.05 108.95,-36.56 114.6,-45.53 118.96,-40.05"/>
</g>
<!-- Proof -->
<g id="edge1" class="edge">
<title>o0-&gt;no_challenge</title>
<path fill="none" stroke="black" d="M424.41,-160.01C426.93,-155.37 437.84,-135.27 447.24,-117.95"/>
<polygon fill="black" stroke="black" points="450.11,-120 451.81,-109.54 443.96,-116.66 450.11,-120"/>
</g>
<!-- Prover Stake&#45;&gt;Proof -->
<g id="edge2" class="edge">
<title>o0-&gt;proof_accepted</title>
<path fill="none" stroke="black" d="M422.77,-160.01C417.38,-155.18 393.29,-133.55 373.48,-115.78"/>
<polygon fill="black" stroke="black" points="375.96,-113.3 366.18,-109.22 371.28,-118.51 375.96,-113.3"/>
</g>
<!-- Verifier Payment -->
<g id="edge10" class="edge">
<title>o1-&gt;no_challenge</title>
<path fill="none" stroke="green" d="M220.69,-861.12C242.93,-860.03 461.87,-846.34 461.87,-729.8 461.87,-729.8 461.87,-729.8 461.87,-244.2 461.87,-200.76 461.87,-150.39 461.87,-119.62" stroke-dasharray="5,2"/>
<polygon fill="green" stroke="green" points="465.37,-119.97 461.87,-109.97 458.37,-119.97 465.37,-119.97"/>
</g>
<!-- Verifier Payment&#45;&gt;Challenge -->
<g id="edge15" class="edge">
<title>o1-&gt;state_0</title>
<path fill="none" stroke="black" d="M218.87,-860.22C218.87,-857.08 218.87,-846.87 218.87,-836.04"/>
<polygon fill="black" stroke="black" points="222.37,-836.31 218.87,-826.31 215.37,-836.31 222.37,-836.31"/>
</g>
<!-- Hinged Funds -->
<g id="edge13" class="edge">
<title>o1-&gt;verifier_unchallenged</title>
<path fill="none" stroke="blue" d="M217.41,-860.87C200.89,-857.06 49.87,-819.74 49.87,-729.8 49.87,-729.8 49.87,-729.8 49.87,-644.6 49.87,-592.97 48.6,-532.96 47.71,-497.35" stroke-dasharray="5,2"/>
<polygon fill="blue" stroke="blue" points="51.22,-497.68 47.47,-487.78 44.23,-497.86 51.22,-497.68"/>
</g>
<!-- Hinged Funds&#45;&gt;o0 -->
<g id="edge8" class="edge">
<title>o2-&gt;no_challenge</title>
<path fill="none" stroke="cyan" d="M495.28,-159.79C492.86,-154.79 483.4,-135.33 475.17,-118.37"/>
<polygon fill="cyan" stroke="cyan" points="478.45,-117.12 470.93,-109.65 472.15,-120.18 478.45,-117.12"/>
</g>
<!-- Hinged Funds&#45;&gt;Prover Unchallenged 1 -->
<g id="edge9" class="edge">
<title>o2-&gt;challenge</title>
<path fill="none" stroke="cyan" d="M496.39,-160.02C497.86,-157.33 502.2,-149.62 506.87,-144 514.98,-134.25 524.75,-124.46 533.85,-115.99"/>
<polygon fill="cyan" stroke="cyan" points="536.12,-118.66 541.17,-109.34 531.42,-113.48 536.12,-118.66"/>
</g>
<!-- Hinged Funds&#45;&gt;Prover Unchallenged 2 -->
<g id="edge18" class="edge">
<title>o3-&gt;prover_unchallenged_0</title>
<path fill="none" stroke="black" d="M219.91,-726.89C225.03,-722.37 248.33,-701.8 270.07,-682.61" stroke-dasharray="5,2"/>
<polygon fill="black" stroke="black" points="272.28,-685.33 277.46,-676.09 267.65,-680.08 272.28,-685.33"/>
</g>
<!-- Hinged Funds&#45;&gt;Prover Unchallenged n -->
<g id="edge17" class="edge">
<title>o3-&gt;select_0</title>
<path fill="none" stroke="black" d="M218.87,-726.65C218.87,-721.27 218.87,-697.95 218.87,-677.86"/>
<polygon fill="black" stroke="black" points="222.37,-678.08 218.87,-668.08 215.37,-678.08 222.37,-678.08"/>
</g>
<!-- Prover Wallet -->
<g id="edge23" class="edge">
<title>o4-&gt;prover_unchallenged_n</title>
<path fill="none" stroke="black" d="M219.91,-463.26C225.12,-458.49 249.18,-436.52 271.25,-416.38" stroke-dasharray="5,2"/>
<polygon fill="black" stroke="black" points="273.42,-419.13 278.45,-409.81 268.7,-413.96 273.42,-419.13"/>
</g>
<!-- Verifier Wallet -->
<g id="edge22" class="edge">
<title>o4-&gt;select_n</title>
<path fill="none" stroke="black" d="M218.87,-463.01C218.87,-457.39 218.87,-432.81 218.87,-411.87"/>
<polygon fill="black" stroke="black" points="222.37,-411.97 218.87,-401.97 215.37,-411.97 222.37,-411.97"/>
</g>
<!-- Proof&#45;&gt;o1 -->
<g id="edge25" class="edge">
<title>o5-&gt;argument</title>
<path fill="none" stroke="black" d="M218.87,-310.07C218.87,-305.76 218.87,-289.83 218.87,-274.96"/>
<polygon fill="black" stroke="black" points="222.37,-275.01 218.87,-265.01 215.37,-275.02 222.37,-275.01"/>
</g>
<!-- Proof&#45;&gt;o2 -->
<g id="edge26" class="edge">
<title>o5-&gt;verifier_unchallenged_n</title>
<path fill="none" stroke="black" d="M217.74,-310.47C212.83,-307.31 192.75,-294.39 171.86,-280.95" stroke-dasharray="5,2"/>
<polygon fill="black" stroke="black" points="173.84,-278.06 163.54,-275.59 170.05,-283.94 173.84,-278.06"/>
</g>
<!-- No Challenge&#45;&gt;Prover Wallet -->
<g id="edge32" class="edge">
<title>o6-&gt;proof_accepted</title>
<path fill="none" stroke="black" d="M220.3,-160.21C228.55,-155.67 270.93,-132.31 304.21,-113.97" stroke-dasharray="5,2"/>
<polygon fill="black" stroke="black" points="305.8,-117.08 312.87,-109.19 302.42,-110.95 305.8,-117.08"/>
</g>
<!-- Proof Accepted&#45;&gt;Prover Wallet -->
<g id="edge31" class="edge">
<title>o6-&gt;proof_refuted</title>
<path fill="none" stroke="black" d="M218.25,-160.01C215.33,-155.37 202.7,-135.27 191.81,-117.95"/>
<polygon fill="black" stroke="black" points="194.78,-116.1 186.5,-109.49 188.85,-119.82 194.78,-116.1"/>
</g>
</g>
</svg>